<?xml version="1.0" encoding="UTF-8"?><svg id="_层_1" xmlns="http://www.w3.org/2000/svg" xmlns:xlink="http://www.w3.org/1999/xlink" viewBox="0 0 725 462"><defs><linearGradient id="_命名的渐变" x1="151" y1="332" x2="881.72" y2="-37.19" gradientTransform="translate(0 464) scale(1 -1)" gradientUnits="userSpaceOnUse"><stop offset="0" stop-color="red"/><stop offset="0" stop-color="#8af2ba"/><stop offset=".25" stop-color="#4ccce7"/><stop offset=".5" stop-color="#4fabf9"/><stop offset=".75" stop-color="#46a5f8"/><stop offset="1" stop-color="#1e57f5"/></linearGradient></defs><path d="M562.12,252.21v171.48c0,1.67,.01,3.33-.07,5-.16,3.39-1.95,5.29-5.36,5.29-17.66,.03-35.33,.06-52.99-.06-4.59-.03-7.22-2.39-7.92-7.26-.95-6.65-.91-13.31-.66-19.95,1.66-44.14,.38-88.3,.7-132.45,.2-27.83,.1-55.66-.02-83.49-.05-11.32-.59-22.64-.72-33.96-.04-3.76-1.22-4.35-4.43-2.65-13.64,7.23-46.9,15.43-48.63,16.02-17.91,6.11-74.4,6.13-84.06,5.91-25.6-.58-50.02-6.9-73.89-15.65-5.59-2.05-10.88-4.91-16.43-7.1-4.62-1.83-6.54-.49-6.62,4.54-.15,9.49-.09,18.98-.09,28.46,.04,79.16,.09,158.32,.14,237.47,.01,9.28-1,10.25-10.36,10.22-16.5-.05-33-.07-49.49-.12-6.13-.02-7.27-1.14-7.16-7.37,1.89-107.64,.3-215.28,.85-322.92,.04-7.81-.81-15.63-.77-23.44,.08-17.49,20.86-47.18,64.66-22.59,7.67,5.87,14.98,12.31,23.15,17.38,5,3.1,10.21,6.04,15.38,8.96,6.48,3.65,13.05,7.28,19.93,10.03,10.98,4.39,22.4,7.79,34.33,7.87,20.63,.13,41.32,1.26,61.86-1.88,2.3-.35,4.74-.45,6.85-1.3,18.81-7.58,38.45-13.34,55.24-25.35,8.81-6.3,17.85-12.26,26.66-18.56,34.8-17.74,55.33,5.62,57.97,13.21,1.5,4.3,1.95,8.74,1.95,13.28-.03,56.99-.02,113.99-.02,170.98h.02Z" style="fill:url(#_命名的渐变);"/></svg>